<?xml version="1.0" encoding="iso-8859-1"?>
<!-- Uploaded to: SVG Repo, www.svgrepo.com, Generator: SVG Repo Mixer Tools -->
<svg fill="#000000" version="1.1" id="Layer_1" xmlns="http://www.w3.org/2000/svg" xmlns:xlink="http://www.w3.org/1999/xlink" 
	 viewBox="0 0 512 512" xml:space="preserve">
<g>
	<g>
		<rect y="385.439" width="512" height="15.642"/>
	</g>
</g>
<g>
	<g>
		<polygon points="480.717,409.428 480.717,481.379 31.283,481.379 31.283,409.428 15.642,409.428 15.642,497.021 496.358,497.021 
			496.358,409.428 		"/>
	</g>
</g>
<g>
	<g>
		<rect x="151.202" y="416.722" width="40.668" height="15.642"/>
	</g>
</g>
<g>
	<g>
		<rect x="320.13" y="416.722" width="40.668" height="15.642"/>
	</g>
</g>
<g>
	<g>
		<polygon points="288.847,416.727 288.847,450.096 223.153,450.096 223.153,416.727 200.212,416.727 200.212,432.369 
			207.511,432.369 207.511,465.738 304.489,465.738 304.489,432.369 311.788,432.369 311.788,416.727 		"/>
	</g>
</g>
<g>
	<g>
		<path d="M304.17,207.169c-36.913,0-72.166,12.53-100.526,35.501l-37.075-21.186l-15.688,15.688l-23.663-23.664V169.59h-15.642
			v28.278l-17.479-17.479l-11.061,11.06l17.766,17.766H71.951v15.642h44.493l23.376,23.376l-15.687,15.687l26.925,47.12
			l-33.461,33.462c-5.83,5.829-13.579,9.039-21.823,9.039c-13.147,0-23.843,10.696-23.843,23.843h15.642
			c0-4.523,3.679-8.201,8.201-8.201c9.275,0,18.135-2.7,25.687-7.724h29.742v-15.642h-12.8l20.701-20.7l6.949,12.16
			c10.328,18.072,29.398,28.915,48.732,28.915c4.799,0,9.615-0.668,14.316-2.059c8.872-2.626,17.038-7.49,23.615-14.068
			c6.579-6.577,11.443-14.743,14.068-23.615c6.998-23.643-4.296-50.158-26.856-63.049l-21.594-12.339
			c24.697-18.319,54.608-28.253,85.838-28.253c60.592,0,112.571,37.588,133.887,90.681h-37.635v15.642h42.887
			c3.306,12.109,5.08,24.843,5.08,37.987v9.98h15.642v-9.98C464.033,278.923,392.319,207.169,304.17,207.169z M232.166,276.984
			c2.16,1.235,4.173,2.64,6.039,4.184h-22.352v15.642h34.144c3.448,7.971,4.256,16.857,1.785,25.204
			c-0.843,2.846-2.029,5.578-3.485,8.165h-24.103v15.642h8.353c-2.506,1.379-5.146,2.505-7.888,3.316
			c-16.761,4.962-35.699-3.29-45.029-19.618l-22.863-40.009h19.459v-15.642h-28.397l-4.191-7.334l25.542-25.542l35.22,20.125
			l0.85,0.901c0.092-0.087,0.187-0.17,0.278-0.257L232.166,276.984z"/>
	</g>
</g>
<g>
	<g>
		<rect x="344.114" y="273.863" width="40.668" height="15.642"/>
	</g>
</g>
<g>
	<g>
		<rect x="320.13" y="289.504" width="23.984" height="15.642"/>
	</g>
</g>
<g>
	<g>
		<rect x="200.212" y="296.804" width="15.642" height="15.642"/>
	</g>
</g>
<g>
	<g>
		<rect x="151.202" y="361.455" width="25.026" height="15.642"/>
	</g>
</g>
<g>
	<g>
		<path d="M214.926,132.533c6.112-12.223,6.112-26.818,0-39.04c-3.921-7.843-3.921-17.208,0-25.049l2.084-4.169
			c4.657-9.313,5.831-20.005,3.306-30.107l-4.798-19.188l-15.175,3.794l4.798,19.188c1.622,6.482,0.868,13.341-2.12,19.317
			l-2.085,4.169c-6.111,12.222-6.111,26.817,0,39.04c3.922,7.843,3.922,17.207-0.001,25.05l-2.082,4.168
			c-4.657,9.313-5.831,20.006-3.306,30.106L200.344,179l15.175-3.794l-4.797-19.188c-1.622-6.482-0.868-13.341,2.121-19.318
			L214.926,132.533z"/>
	</g>
</g>
<g>
	<g>
		<path d="M265.56,154.966c2.931-11.723,2.931-24.116,0-35.839c-2.311-9.241-2.311-19.01,0-28.252l4.005-16.022L254.39,71.06
			l-4.005,16.022c-2.931,11.723-2.931,24.116,0,35.84c2.311,9.241,2.311,19.01,0,28.251c-2.93,11.723-2.93,24.116,0,35.839
			l4.005,16.022l15.175-3.794l-4.005-16.023C263.249,173.976,263.249,164.207,265.56,154.966z"/>
	</g>
</g>
<g>
	<g>
		<path d="M308.356,77.055c6.194-12.389,7.756-26.613,4.397-40.052l-3.503-14.013l-15.175,3.794l3.503,14.013
			c2.455,9.819,1.314,20.212-3.212,29.263c-5.747,11.492-7.523,24.76-5.003,37.357l4.63,23.152l15.338-3.068l-4.63-23.152
			C302.86,95.145,304.158,85.452,308.356,77.055z"/>
	</g>
</g>
<g>
	<g>
		<path d="M350.259,183.926c-4.013-20.063-3.51-41.157,1.453-61.004l-15.175-3.795c-5.519,22.08-6.078,45.547-1.615,67.867
			l1.534,7.667l15.338-3.068L350.259,183.926z"/>
	</g>
</g>
<g>
	<g>
		<rect x="328.473" y="72.618" width="15.642" height="16.684"/>
	</g>
</g>
<g>
	<g>
		<path d="M368.158,313.486c-17.564,0-31.855,14.29-31.855,31.855v8.201H312.08c-13.147,0-23.844,10.696-23.844,23.843h15.642
			c0-4.523,3.679-8.201,8.202-8.201h39.865V345.34c0-6.105,3.393-11.434,8.392-14.199v46.245h15.642v-63.9H368.158z"/>
	</g>
</g>
<g>
	<g>
		<rect x="296.147" y="241.537" width="15.642" height="15.642"/>
	</g>
</g>
<g>
	<g>
		<rect x="424.407" y="361.455" width="15.642" height="15.642"/>
	</g>
</g>
<g>
	<g>
		<rect x="280.505" y="257.178" width="15.642" height="15.642"/>
	</g>
</g>
</svg>