<svg id="09827ccd-bdf8-4157-ab71-6e16648d4121" data-name="Layer 1" xmlns="http://www.w3.org/2000/svg" viewBox="0 0 512 512">
	<title>close-circle</title>
	<circle cx="256" cy="256" r="256" fill="#EEF3FA"/>
	<path d="M273.6,256l67.3-67.3a12.45,12.45,0,1,0-17.6-17.6L256,238.4l-67.3-67.3a12.45,12.45,0,1,0-17.6,17.6L238.4,256l-67.3,67.3a12.5,12.5,0,0,0,8.8,21.3,12.1,12.1,0,0,0,8.8-3.7L256,273.6l67.3,67.3a12.51,12.51,0,0,0,8.8,3.7,12.1,12.1,0,0,0,8.8-3.7,12.56,12.56,0,0,0,0-17.6Z" fill="#6A7786"/>
</svg>
